<?xml version="1.0" standalone="no"?>
<!DOCTYPE svg PUBLIC "-//W3C//DTD SVG 20010904//EN"
 "http://www.w3.org/TR/2001/REC-SVG-20010904/DTD/svg10.dtd">
<svg version="1.0" xmlns="http://www.w3.org/2000/svg"
 width="500.000000pt" height="500.000000pt" viewBox="0 0 500.000000 500.000000"
 preserveAspectRatio="xMidYMid meet">

<g transform="translate(0.000000,500.000000) scale(0.100000,-0.100000)"
fill="url(#grad1)" stroke="none">
  <defs>
    <linearGradient id="grad1" x1="0%" y1="0%" x2="100%" y2="0%">
      <stop offset="0%" style="stop-color:rgb(255,255,0);stop-opacity:1" />
      <stop offset="100%" style="stop-color:rgb(246, 176, 22);stop-opacity:1" />
    </linearGradient>
  </defs>
<path d="M2335 4743 c-765 -67 -1421 -506 -1764 -1182 -309 -609 -309 -1343 0
-1952 475 -936 1546 -1397 2551 -1098 729 217 1294 810 1483 1558 81 324 81
708 0 1032 -135 534 -457 989 -915 1292 -137 91 -355 196 -505 246 -266 87
-591 127 -850 104z m434 -838 c547 -107 973 -545 1067 -1099 24 -146 15 -394
-20 -534 -131 -520 -544 -915 -1064 -1019 -135 -27 -386 -24 -521 6 -534 117
-934 521 -1052 1062 -27 124 -32 366 -10 489 45 250 179 519 352 704 199 213
494 363 799 406 93 13 351 4 449 -15z"/>
<path d="M2001 3574 c-201 -107 -349 -248 -463 -439 -61 -102 -83 -162 -70
-190 13 -28 52 -34 71 -11 7 8 32 54 57 103 102 200 277 372 471 463 83 40
102 69 67 104 -23 24 -41 20 -133 -30z"/>
<path d="M2135 3375 c-190 -99 -338 -249 -427 -432 -39 -80 -40 -84 -24 -108
19 -29 47 -32 68 -7 9 9 32 49 51 88 74 147 203 279 352 359 85 46 105 63 105
86 0 16 -34 49 -51 49 -4 0 -37 -16 -74 -35z"/>
<path d="M2350 3091 c-215 -69 -360 -252 -377 -475 -7 -89 22 -212 69 -294 72
-128 209 -227 360 -258 254 -54 524 106 603 358 47 149 26 322 -55 448 -68
106 -202 202 -320 229 -71 17 -217 12 -280 -8z m231 -81 c281 -52 433 -360
307 -620 -129 -266 -498 -322 -696 -105 -195 213 -146 544 101 676 97 52 188
68 288 49z"/>
<path d="M2417 2806 c-70 -26 -121 -82 -143 -156 -60 -198 158 -372 344 -276
41 21 98 87 112 131 33 100 -13 223 -104 279 -57 36 -147 45 -209 22z m136
-90 c18 -7 45 -28 60 -45 54 -64 28 -179 -47 -215 -70 -33 -146 -10 -186 56
-69 113 52 255 173 204z"/>
<path d="M3262 2353 c-7 -2 -30 -40 -52 -84 -87 -174 -219 -307 -391 -394 -40
-21 -68 -42 -72 -54 -5 -22 17 -61 36 -61 24 0 161 71 222 114 69 50 177 160
222 226 42 63 103 186 103 209 0 36 -34 58 -68 44z"/>
<path d="M3472 2242 c-7 -5 -28 -41 -47 -81 -104 -217 -302 -414 -506 -504
-63 -28 -77 -49 -54 -83 22 -33 45 -30 138 18 221 115 428 333 518 547 24 57
26 69 15 86 -15 22 -44 30 -64 17z"/>
</g>
</svg>
