<?xml version="1.0" standalone="no"?>
<!DOCTYPE svg PUBLIC "-//W3C//DTD SVG 20010904//EN"
 "http://www.w3.org/TR/2001/REC-SVG-20010904/DTD/svg10.dtd">
<svg version="1.0" xmlns="http://www.w3.org/2000/svg"
 width="500.000000pt" height="500.000000pt" viewBox="0 0 500.000000 500.000000"
 preserveAspectRatio="xMidYMid meet">

<g transform="translate(0.000000,500.000000) scale(0.100000,-0.100000)"
fill="#00CC01" stroke="none">
<path d="M1960 4191 c-586 -196 -1022 -663 -1179 -1264 -67 -259 -70 -585 -8
-854 8 -33 19 -68 25 -79 48 -90 172 -98 231 -15 27 37 27 88 0 211 -26 123
-35 336 -20 465 29 247 115 474 262 695 78 117 250 291 374 379 108 76 297
169 419 207 48 15 101 38 116 51 70 58 58 178 -21 219 -42 21 -104 17 -199
-15z"/>
<path d="M2080 3794 c-259 -88 -499 -263 -666 -484 -114 -151 -212 -372 -251
-568 -36 -180 -18 -531 34 -639 37 -79 153 -98 215 -36 41 42 47 81 27 187
-26 133 -32 240 -19 341 31 259 128 469 300 649 131 138 279 232 455 291 44
15 88 31 98 37 32 17 57 70 57 122 0 43 -4 53 -39 87 -34 35 -44 39 -87 39
-27 0 -83 -12 -124 -26z"/>
<path d="M2390 3444 c-222 -40 -400 -127 -540 -264 -285 -276 -371 -688 -223
-1059 151 -379 538 -624 947 -597 180 11 330 60 474 155 490 324 582 986 200
1441 -112 133 -310 255 -488 301 -82 21 -304 35 -370 23z m255 -712 c170 -88
201 -326 58 -452 -137 -120 -346 -80 -430 84 -36 69 -38 170 -4 236 39 76 96
127 171 151 44 15 162 4 205 -19z"/>
<path d="M4055 3032 c-72 -45 -80 -84 -47 -233 21 -99 25 -139 25 -309 1 -221
-14 -314 -79 -501 -157 -453 -514 -802 -969 -949 -59 -19 -111 -43 -127 -58
-91 -84 -34 -232 88 -232 55 0 250 68 373 130 496 248 842 701 963 1260 20 93
22 133 22 345 0 212 -2 252 -22 345 -13 58 -32 124 -43 147 -33 68 -120 94
-184 55z"/>
<path d="M3647 2922 c-15 -9 -37 -36 -48 -59 l-20 -42 22 -103 c28 -131 30
-325 4 -443 -47 -219 -137 -394 -284 -548 -133 -139 -282 -234 -460 -292 -100
-33 -140 -65 -150 -120 -16 -85 32 -153 112 -162 53 -6 166 28 294 88 270 128
519 379 648 652 98 209 130 355 129 597 -1 186 -24 340 -60 395 -35 54 -130
73 -187 37z"/>
</g>
</svg>
