<?xml version="1.0" standalone="no"?>
<!DOCTYPE svg PUBLIC "-//W3C//DTD SVG 20010904//EN"
 "http://www.w3.org/TR/2001/REC-SVG-20010904/DTD/svg10.dtd">
<svg version="1.0" xmlns="http://www.w3.org/2000/svg"
 width="500.000000pt" height="500.000000pt" viewBox="0 0 500.000000 500.000000"
 preserveAspectRatio="xMidYMid meet">

<g transform="translate(0.000000,500.000000) scale(0.100000,-0.100000)"
 stroke="none">
<path d="M1565 3763 c-175 -23 -349 -75 -496 -149 -284 -142 -529 -386 -671
-667 -52 -104 -113 -288 -135 -407 -26 -143 -24 -392 5 -535 120 -607 566
-1057 1176 -1187 138 -29 416 -31 556 -4 675 131 1178 693 1217 1359 l6 107
-270 0 -270 0 -12 -101 c-52 -424 -357 -750 -778 -830 -94 -17 -319 -6 -413
20 -317 91 -575 352 -662 671 -20 73 -23 108 -23 245 0 136 4 172 23 239 74
257 237 463 464 586 122 65 228 97 391 115 l57 6 0 270 0 269 -67 -1 c-38 -1
-81 -4 -98 -6z" fill="#cccc"/>
<path d="M3045 3756 c-495 -82 -899 -379 -1115 -821 -89 -181 -150 -420 -150
-586 l0 -69 269 0 268 0 12 101 c67 589 654 978 1213 803 334 -104 582 -378
652 -716 29 -142 17 -344 -29 -483 -116 -350 -446 -613 -808 -643 l-82 -7 -3
-272 -2 -273 39 0 c22 0 91 7 154 15 503 66 943 388 1155 845 96 206 136 393
136 630 0 194 -17 301 -74 471 -70 212 -178 393 -328 551 -216 226 -478 374
-780 439 -125 26 -408 35 -527 15z" fill="#f6b016"/>
</g>
</svg>
