<?xml version="1.0" standalone="no"?>
<!DOCTYPE svg PUBLIC "-//W3C//DTD SVG 20010904//EN"
 "http://www.w3.org/TR/2001/REC-SVG-20010904/DTD/svg10.dtd">
<svg version="1.0" xmlns="http://www.w3.org/2000/svg"
 width="500.000000pt" height="500.000000pt" viewBox="0 0 500.000000 500.000000"
 preserveAspectRatio="xMidYMid meet">

<g transform="translate(0.000000,500.000000) scale(0.100000,-0.100000)"
fill="#00CC01" stroke="none">
<path d="M1626 4964 c-115 -39 -314 -133 -425 -200 -491 -298 -863 -800 -1006
-1358 -55 -217 -70 -333 -69 -571 0 -218 12 -323 55 -505 25 -107 50 -148 109
-177 54 -28 92 -29 147 -4 86 40 113 125 80 256 -48 188 -63 503 -33 702 110
732 613 1327 1310 1549 165 52 206 91 206 195 0 35 -7 63 -21 85 -35 57 -53
64 -159 63 -81 0 -110 -6 -194 -35z"/>
<path d="M1819 4481 c-603 -206 -1041 -719 -1154 -1351 -45 -250 -16 -652 56
-779 59 -106 226 -107 291 -3 27 43 28 103 5 207 -59 260 -32 554 74 813 74
182 172 324 326 472 154 150 311 245 519 316 131 44 167 69 189 129 42 109
-26 219 -141 231 -40 4 -72 -3 -165 -35z"/>
<path d="M2165 4034 c-439 -78 -801 -388 -939 -803 -106 -321 -81 -649 74
-949 302 -585 1021 -817 1613 -522 335 168 574 483 648 855 18 92 18 358 0
450 -99 501 -495 889 -991 970 -116 18 -297 18 -405 -1z m138 -755 c117 -67
248 -143 292 -169 44 -26 145 -85 225 -130 80 -46 151 -90 158 -99 17 -22 15
-65 -5 -83 -16 -15 -194 -119 -676 -397 -219 -127 -227 -130 -261 -108 l-26
17 0 527 c0 476 2 528 17 545 9 10 27 18 40 18 13 0 120 -55 236 -121z"/>
<path d="M4302 3533 c-85 -42 -107 -123 -74 -269 53 -232 62 -505 23 -729
-125 -716 -611 -1281 -1296 -1506 -172 -57 -215 -96 -215 -195 0 -85 57 -153
142 -169 43 -8 168 25 321 86 727 290 1252 940 1387 1719 27 159 37 434 21
585 -17 156 -58 352 -84 404 -40 79 -145 114 -225 74z"/>
<path d="M3823 3409 c-49 -14 -99 -70 -111 -123 -7 -36 -4 -66 15 -158 35
-159 37 -404 4 -558 -61 -284 -194 -524 -402 -725 -161 -156 -315 -249 -529
-320 -126 -42 -161 -67 -185 -130 -42 -109 37 -226 153 -228 67 -1 222 52 377
129 424 210 749 596 885 1054 53 180 64 265 64 490 1 175 -3 222 -22 320 -35
174 -60 217 -139 246 -44 15 -65 16 -110 3z"/>
</g>
</svg>
